<?xml version="1.0" encoding="UTF-8" standalone="no"?>
<!-- Minitab#Minitab Graph Enh Metafile -->

<svg
   xmlns:dc="http://purl.org/dc/elements/1.1/"
   xmlns:cc="http://creativecommons.org/ns#"
   xmlns:rdf="http://www.w3.org/1999/02/22-rdf-syntax-ns#"
   xmlns:svg="http://www.w3.org/2000/svg"
   xmlns="http://www.w3.org/2000/svg"
   xmlns:sodipodi="http://sodipodi.sourceforge.net/DTD/sodipodi-0.dtd"
   xmlns:inkscape="http://www.inkscape.org/namespaces/inkscape"
   version="1.0"
   width="556.56738"
   height="479.82507"
   id="svg2985"
   inkscape:version="0.48.2 r9819"
   sodipodi:docname="Time Series Plot of Training (x), Classification (x).emf">
  <metadata
     id="metadata3145">
    <rdf:RDF>
      <cc:Work
         rdf:about="">
        <dc:format>image/svg+xml</dc:format>
        <dc:type
           rdf:resource="http://purl.org/dc/dcmitype/StillImage" />
        <dc:title></dc:title>
      </cc:Work>
    </rdf:RDF>
  </metadata>
  <sodipodi:namedview
     pagecolor="#ffffff"
     bordercolor="#666666"
     borderopacity="1"
     objecttolerance="10"
     gridtolerance="10"
     guidetolerance="10"
     inkscape:pageopacity="0"
     inkscape:pageshadow="2"
     inkscape:window-width="1920"
     inkscape:window-height="1058"
     id="namedview3143"
     showgrid="false"
     fit-margin-top="0"
     fit-margin-left="0"
     fit-margin-right="0"
     fit-margin-bottom="0"
     inkscape:zoom="1.7175118"
     inkscape:cx="237.8846"
     inkscape:cy="237.4185"
     inkscape:window-x="-8"
     inkscape:window-y="-8"
     inkscape:window-maximized="1"
     inkscape:current-layer="svg2985" />
  <defs
     id="defs2987" />
  <g
     id="g3223"
     transform="matrix(0.85648892,0,0,1,0.54930559,0.54930559)">
    <path
       style="fill:#f1ece2;fill-opacity:1;fill-rule:nonzero;stroke:#f1ece2;stroke-width:1.1860069px;stroke-linecap:round;stroke-linejoin:round;stroke-opacity:1;stroke-dasharray:none"
       d="m 0,0 647.36024,0 0,478.72647 -647.36024,0 z"
       id="path2991"
       inkscape:connector-curvature="0" />
    <path
       style="fill:none;stroke:#000000;stroke-width:1.18708861px;stroke-linecap:round;stroke-linejoin:round;stroke-opacity:1;stroke-dasharray:none"
       d="m 0,0 648.54169,0 0,478.72647 L 0,478.72647 0,0"
       id="path2993"
       inkscape:connector-curvature="0" />
  </g>
  <path
     inkscape:connector-curvature="0"
     id="path2995"
     d="m 83.008708,35.547586 443.531632,0 0,377.481454 -443.531632,0 z"
     style="fill:#ffffff;fill-opacity:1;fill-rule:nonzero;stroke:#ffffff;stroke-width:1.24938488px;stroke-linecap:round;stroke-linejoin:round;stroke-opacity:1;stroke-dasharray:none" />
  <path
     inkscape:connector-curvature="0"
     id="path2997"
     d="m 516.54527,413.02904 0,-6.2497 m 0,-3.74981 0,-6.24969 m 0,-3.74982 0,-6.24969 m 0,-3.74982 0,-6.24969 m 0,-3.74982 0,-6.24969 m 0,-3.74982 0,-6.24969 m 0,-3.74981 0,-6.2497 m 0,-3.74981 0,-6.2497 m 0,-3.74981 0,-6.24969 m 0,-3.74982 0,-6.24969 m 0,-3.74982 0,-6.24969 m 0,-3.74982 0,-6.24969 m 0,-3.74982 0,-6.24969 m 0,-3.74981 0,-6.2497 m 0,-3.74981 0,-6.2497 m 0,-3.74981 0,-6.24969 m 0,-3.74982 0,-6.24969 m 0,-3.74982 0,-6.24969 m 0,-3.74982 0,-6.24969 m 0,-3.74981 0,-6.2497 m 0,-3.74981 0,-6.2497 m 0,-3.74981 0,-6.24969 m 0,-3.74982 0,-6.24969 m 0,-3.74982 0,-6.24969 m 0,-3.74982 0,-6.24969 m 0,-3.74982 0,-6.24969 m 0,-3.74981 0,-6.2497 m 0,-3.74981 0,-6.2497 m 0,-3.74981 0,-6.24969 m 0,-3.74982 0,-6.24969 m 0,-3.74982 0,-6.24969 m 0,-3.74982 0,-6.249694 m 0,-3.749816 0,-6.249693 m 0,-3.749816 0,-6.249692 m 0,-3.749816 0,-6.249693 m 0,-3.749816 0,-6.249692 m 0,-3.749816 0,-6.249693 m 0,-3.749816 0,-6.249693"
     style="fill:none;stroke:#c0c0c0;stroke-width:1.24938488px;stroke-linecap:round;stroke-linejoin:round;stroke-opacity:1;stroke-dasharray:none" />
  <path
     inkscape:connector-curvature="0"
     id="path2999"
     d="m 375.36477,413.02904 0,-6.2497 m 0,-3.74981 0,-6.24969 m 0,-3.74982 0,-6.24969 m 0,-3.74982 0,-6.24969 m 0,-3.74982 0,-6.24969 m 0,-3.74982 0,-6.24969 m 0,-3.74981 0,-6.2497 m 0,-3.74981 0,-6.2497 m 0,-3.74981 0,-6.24969 m 0,-3.74982 0,-6.24969 m 0,-3.74982 0,-6.24969 m 0,-3.74982 0,-6.24969 m 0,-3.74982 0,-6.24969 m 0,-3.74981 0,-6.2497 m 0,-3.74981 0,-6.2497 m 0,-3.74981 0,-6.24969 m 0,-3.74982 0,-6.24969 m 0,-3.74982 0,-6.24969 m 0,-3.74982 0,-6.24969 m 0,-3.74981 0,-6.2497 m 0,-3.74981 0,-6.2497 m 0,-3.74981 0,-6.24969 m 0,-3.74982 0,-6.24969 m 0,-3.74982 0,-6.24969 m 0,-3.74982 0,-6.24969 m 0,-3.74982 0,-6.24969 m 0,-3.74981 0,-6.2497 m 0,-3.74981 0,-6.2497 m 0,-3.74981 0,-6.24969 m 0,-3.74982 0,-6.24969 m 0,-3.74982 0,-6.24969 m 0,-3.74982 0,-6.249694 m 0,-3.749816 0,-6.249693 m 0,-3.749816 0,-6.249692 m 0,-3.749816 0,-6.249693 m 0,-3.749816 0,-6.249692 m 0,-3.749816 0,-6.249693 m 0,-3.749816 0,-6.249693"
     style="fill:none;stroke:#c0c0c0;stroke-width:1.24938488px;stroke-linecap:round;stroke-linejoin:round;stroke-opacity:1;stroke-dasharray:none" />
  <path
     inkscape:connector-curvature="0"
     id="path3001"
     d="m 234.18428,413.02904 0,-6.2497 m 0,-3.74981 0,-6.24969 m 0,-3.74982 0,-6.24969 m 0,-3.74982 0,-6.24969 m 0,-3.74982 0,-6.24969 m 0,-3.74982 0,-6.24969 m 0,-3.74981 0,-6.2497 m 0,-3.74981 0,-6.2497 m 0,-3.74981 0,-6.24969 m 0,-3.74982 0,-6.24969 m 0,-3.74982 0,-6.24969 m 0,-3.74982 0,-6.24969 m 0,-3.74982 0,-6.24969 m 0,-3.74981 0,-6.2497 m 0,-3.74981 0,-6.2497 m 0,-3.74981 0,-6.24969 m 0,-3.74982 0,-6.24969 m 0,-3.74982 0,-6.24969 m 0,-3.74982 0,-6.24969 m 0,-3.74981 0,-6.2497 m 0,-3.74981 0,-6.2497 m 0,-3.74981 0,-6.24969 m 0,-3.74982 0,-6.24969 m 0,-3.74982 0,-6.24969 m 0,-3.74982 0,-6.24969 m 0,-3.74982 0,-6.24969 m 0,-3.74981 0,-6.2497 m 0,-3.74981 0,-6.2497 m 0,-3.74981 0,-6.24969 m 0,-3.74982 0,-6.24969 m 0,-3.74982 0,-6.24969 m 0,-3.74982 0,-6.249694 m 0,-3.749816 0,-6.249693 m 0,-3.749816 0,-6.249692 m 0,-3.749816 0,-6.249693 m 0,-3.749816 0,-6.249692 m 0,-3.749816 0,-6.249693 m 0,-3.749816 0,-6.249693"
     style="fill:none;stroke:#c0c0c0;stroke-width:1.24938488px;stroke-linecap:round;stroke-linejoin:round;stroke-opacity:1;stroke-dasharray:none" />
  <path
     inkscape:connector-curvature="0"
     id="path3003"
     d="m 93.003787,413.02904 0,-6.2497 m 0,-3.74981 0,-6.24969 m 0,-3.74982 0,-6.24969 m 0,-3.74982 0,-6.24969 m 0,-3.74982 0,-6.24969 m 0,-3.74982 0,-6.24969 m 0,-3.74981 0,-6.2497 m 0,-3.74981 0,-6.2497 m 0,-3.74981 0,-6.24969 m 0,-3.74982 0,-6.24969 m 0,-3.74982 0,-6.24969 m 0,-3.74982 0,-6.24969 m 0,-3.74982 0,-6.24969 m 0,-3.74981 0,-6.2497 m 0,-3.74981 0,-6.2497 m 0,-3.74981 0,-6.24969 m 0,-3.74982 0,-6.24969 m 0,-3.74982 0,-6.24969 m 0,-3.74982 0,-6.24969 m 0,-3.74981 0,-6.2497 m 0,-3.74981 0,-6.2497 m 0,-3.74981 0,-6.24969 m 0,-3.74982 0,-6.24969 m 0,-3.74982 0,-6.24969 m 0,-3.74982 0,-6.24969 m 0,-3.74982 0,-6.24969 m 0,-3.74981 0,-6.2497 m 0,-3.74981 0,-6.2497 m 0,-3.74981 0,-6.24969 m 0,-3.74982 0,-6.24969 m 0,-3.74982 0,-6.24969 m 0,-3.74982 0,-6.249694 m 0,-3.749816 0,-6.249693 m 0,-3.749816 0,-6.249692 m 0,-3.749816 0,-6.249693 m 0,-3.749816 0,-6.249692 m 0,-3.749816 0,-6.249693 m 0,-3.749816 0,-6.249693"
     style="fill:none;stroke:#c0c0c0;stroke-width:1.24938488px;stroke-linecap:round;stroke-linejoin:round;stroke-opacity:1;stroke-dasharray:none" />
  <path
     inkscape:connector-curvature="0"
     id="path3005"
     d="m 83.008708,41.797279 6.246924,0 m 3.748155,0 6.246925,0 m 3.748158,0 6.24692,0 m 3.74816,0 6.24692,0 m 3.74816,0 6.24692,0 m 3.74816,0 6.24692,0 m 3.74816,0 6.24692,0 m 3.74816,0 6.24692,0 m 3.74815,0 6.24693,0 m 3.74815,0 6.24693,0 m 3.74815,0 6.24693,0 m 3.74815,0 6.24693,0 m 3.74815,0 6.24692,0 m 3.74816,0 6.24692,0 m 3.74816,0 6.24692,0 m 3.74816,0 6.24692,0 m 3.74816,0 6.24692,0 m 3.74816,0 6.24692,0 m 3.74815,0 6.24693,0 m 3.74815,0 6.24693,0 m 3.74815,0 6.24693,0 m 3.74815,0 6.24693,0 m 3.74815,0 6.24693,0 m 3.74815,0 6.24692,0 m 3.74816,0 6.24692,0 m 3.74816,0 6.24692,0 m 3.74816,0 6.24692,0 m 3.74816,0 6.24692,0 m 3.74816,0 6.24692,0 m 3.74815,0 6.24693,0 m 3.74815,0 6.24693,0 m 3.74815,0 6.24693,0 m 3.74815,0 6.24693,0 m 3.74815,0 6.24692,0 m 3.74816,0 6.24692,0 m 3.74816,0 6.24692,0 m 3.74816,0 6.24692,0 m 3.74816,0 6.24692,0 m 3.74816,0 6.24692,0 m 3.74815,0 6.24693,0 m 3.74815,0 6.24693,0 m 3.74815,0 6.24693,0 m 3.74815,0 6.24693,0 m 3.74815,0 6.24693,0 m 3.74815,0 3.74815,0"
     style="fill:none;stroke:#c0c0c0;stroke-width:1.24938488px;stroke-linecap:round;stroke-linejoin:round;stroke-opacity:1;stroke-dasharray:none" />
  <path
     inkscape:connector-curvature="0"
     id="path3007"
     d="m 83.008708,100.54439 6.246924,0 m 3.748155,0 6.246925,0 m 3.748158,0 6.24692,0 m 3.74816,0 6.24692,0 m 3.74816,0 6.24692,0 m 3.74816,0 6.24692,0 m 3.74816,0 6.24692,0 m 3.74816,0 6.24692,0 m 3.74815,0 6.24693,0 m 3.74815,0 6.24693,0 m 3.74815,0 6.24693,0 m 3.74815,0 6.24693,0 m 3.74815,0 6.24692,0 m 3.74816,0 6.24692,0 m 3.74816,0 6.24692,0 m 3.74816,0 6.24692,0 m 3.74816,0 6.24692,0 m 3.74816,0 6.24692,0 m 3.74815,0 6.24693,0 m 3.74815,0 6.24693,0 m 3.74815,0 6.24693,0 m 3.74815,0 6.24693,0 m 3.74815,0 6.24693,0 m 3.74815,0 6.24692,0 m 3.74816,0 6.24692,0 m 3.74816,0 6.24692,0 m 3.74816,0 6.24692,0 m 3.74816,0 6.24692,0 m 3.74816,0 6.24692,0 m 3.74815,0 6.24693,0 m 3.74815,0 6.24693,0 m 3.74815,0 6.24693,0 m 3.74815,0 6.24693,0 m 3.74815,0 6.24692,0 m 3.74816,0 6.24692,0 m 3.74816,0 6.24692,0 m 3.74816,0 6.24692,0 m 3.74816,0 6.24692,0 m 3.74816,0 6.24692,0 m 3.74815,0 6.24693,0 m 3.74815,0 6.24693,0 m 3.74815,0 6.24693,0 m 3.74815,0 6.24693,0 m 3.74815,0 6.24693,0 m 3.74815,0 3.74815,0"
     style="fill:none;stroke:#c0c0c0;stroke-width:1.24938488px;stroke-linecap:round;stroke-linejoin:round;stroke-opacity:1;stroke-dasharray:none" />
  <path
     inkscape:connector-curvature="0"
     id="path3009"
     d="m 83.008708,159.29151 6.246924,0 m 3.748155,0 6.246925,0 m 3.748158,0 6.24692,0 m 3.74816,0 6.24692,0 m 3.74816,0 6.24692,0 m 3.74816,0 6.24692,0 m 3.74816,0 6.24692,0 m 3.74816,0 6.24692,0 m 3.74815,0 6.24693,0 m 3.74815,0 6.24693,0 m 3.74815,0 6.24693,0 m 3.74815,0 6.24693,0 m 3.74815,0 6.24692,0 m 3.74816,0 6.24692,0 m 3.74816,0 6.24692,0 m 3.74816,0 6.24692,0 m 3.74816,0 6.24692,0 m 3.74816,0 6.24692,0 m 3.74815,0 6.24693,0 m 3.74815,0 6.24693,0 m 3.74815,0 6.24693,0 m 3.74815,0 6.24693,0 m 3.74815,0 6.24693,0 m 3.74815,0 6.24692,0 m 3.74816,0 6.24692,0 m 3.74816,0 6.24692,0 m 3.74816,0 6.24692,0 m 3.74816,0 6.24692,0 m 3.74816,0 6.24692,0 m 3.74815,0 6.24693,0 m 3.74815,0 6.24693,0 m 3.74815,0 6.24693,0 m 3.74815,0 6.24693,0 m 3.74815,0 6.24692,0 m 3.74816,0 6.24692,0 m 3.74816,0 6.24692,0 m 3.74816,0 6.24692,0 m 3.74816,0 6.24692,0 m 3.74816,0 6.24692,0 m 3.74815,0 6.24693,0 m 3.74815,0 6.24693,0 m 3.74815,0 6.24693,0 m 3.74815,0 6.24693,0 m 3.74815,0 6.24693,0 m 3.74815,0 3.74815,0"
     style="fill:none;stroke:#c0c0c0;stroke-width:1.24938488px;stroke-linecap:round;stroke-linejoin:round;stroke-opacity:1;stroke-dasharray:none" />
  <path
     inkscape:connector-curvature="0"
     id="path3011"
     d="m 83.008708,218.03862 6.246924,0 m 3.748155,0 6.246925,0 m 3.748158,0 6.24692,0 m 3.74816,0 6.24692,0 m 3.74816,0 6.24692,0 m 3.74816,0 6.24692,0 m 3.74816,0 6.24692,0 m 3.74816,0 6.24692,0 m 3.74815,0 6.24693,0 m 3.74815,0 6.24693,0 m 3.74815,0 6.24693,0 m 3.74815,0 6.24693,0 m 3.74815,0 6.24692,0 m 3.74816,0 6.24692,0 m 3.74816,0 6.24692,0 m 3.74816,0 6.24692,0 m 3.74816,0 6.24692,0 m 3.74816,0 6.24692,0 m 3.74815,0 6.24693,0 m 3.74815,0 6.24693,0 m 3.74815,0 6.24693,0 m 3.74815,0 6.24693,0 m 3.74815,0 6.24693,0 m 3.74815,0 6.24692,0 m 3.74816,0 6.24692,0 m 3.74816,0 6.24692,0 m 3.74816,0 6.24692,0 m 3.74816,0 6.24692,0 m 3.74816,0 6.24692,0 m 3.74815,0 6.24693,0 m 3.74815,0 6.24693,0 m 3.74815,0 6.24693,0 m 3.74815,0 6.24693,0 m 3.74815,0 6.24692,0 m 3.74816,0 6.24692,0 m 3.74816,0 6.24692,0 m 3.74816,0 6.24692,0 m 3.74816,0 6.24692,0 m 3.74816,0 6.24692,0 m 3.74815,0 6.24693,0 m 3.74815,0 6.24693,0 m 3.74815,0 6.24693,0 m 3.74815,0 6.24693,0 m 3.74815,0 6.24693,0 m 3.74815,0 3.74815,0"
     style="fill:none;stroke:#c0c0c0;stroke-width:1.24938488px;stroke-linecap:round;stroke-linejoin:round;stroke-opacity:1;stroke-dasharray:none" />
  <path
     inkscape:connector-curvature="0"
     id="path3013"
     d="m 83.008708,276.78573 6.246924,0 m 3.748155,0 6.246925,0 m 3.748158,0 6.24692,0 m 3.74816,0 6.24692,0 m 3.74816,0 6.24692,0 m 3.74816,0 6.24692,0 m 3.74816,0 6.24692,0 m 3.74816,0 6.24692,0 m 3.74815,0 6.24693,0 m 3.74815,0 6.24693,0 m 3.74815,0 6.24693,0 m 3.74815,0 6.24693,0 m 3.74815,0 6.24692,0 m 3.74816,0 6.24692,0 m 3.74816,0 6.24692,0 m 3.74816,0 6.24692,0 m 3.74816,0 6.24692,0 m 3.74816,0 6.24692,0 m 3.74815,0 6.24693,0 m 3.74815,0 6.24693,0 m 3.74815,0 6.24693,0 m 3.74815,0 6.24693,0 m 3.74815,0 6.24693,0 m 3.74815,0 6.24692,0 m 3.74816,0 6.24692,0 m 3.74816,0 6.24692,0 m 3.74816,0 6.24692,0 m 3.74816,0 6.24692,0 m 3.74816,0 6.24692,0 m 3.74815,0 6.24693,0 m 3.74815,0 6.24693,0 m 3.74815,0 6.24693,0 m 3.74815,0 6.24693,0 m 3.74815,0 6.24692,0 m 3.74816,0 6.24692,0 m 3.74816,0 6.24692,0 m 3.74816,0 6.24692,0 m 3.74816,0 6.24692,0 m 3.74816,0 6.24692,0 m 3.74815,0 6.24693,0 m 3.74815,0 6.24693,0 m 3.74815,0 6.24693,0 m 3.74815,0 6.24693,0 m 3.74815,0 6.24693,0 m 3.74815,0 3.74815,0"
     style="fill:none;stroke:#c0c0c0;stroke-width:1.24938488px;stroke-linecap:round;stroke-linejoin:round;stroke-opacity:1;stroke-dasharray:none" />
  <path
     inkscape:connector-curvature="0"
     id="path3015"
     d="m 83.008708,335.53285 6.246924,0 m 3.748155,0 6.246925,0 m 3.748158,0 6.24692,0 m 3.74816,0 6.24692,0 m 3.74816,0 6.24692,0 m 3.74816,0 6.24692,0 m 3.74816,0 6.24692,0 m 3.74816,0 6.24692,0 m 3.74815,0 6.24693,0 m 3.74815,0 6.24693,0 m 3.74815,0 6.24693,0 m 3.74815,0 6.24693,0 m 3.74815,0 6.24692,0 m 3.74816,0 6.24692,0 m 3.74816,0 6.24692,0 m 3.74816,0 6.24692,0 m 3.74816,0 6.24692,0 m 3.74816,0 6.24692,0 m 3.74815,0 6.24693,0 m 3.74815,0 6.24693,0 m 3.74815,0 6.24693,0 m 3.74815,0 6.24693,0 m 3.74815,0 6.24693,0 m 3.74815,0 6.24692,0 m 3.74816,0 6.24692,0 m 3.74816,0 6.24692,0 m 3.74816,0 6.24692,0 m 3.74816,0 6.24692,0 m 3.74816,0 6.24692,0 m 3.74815,0 6.24693,0 m 3.74815,0 6.24693,0 m 3.74815,0 6.24693,0 m 3.74815,0 6.24693,0 m 3.74815,0 6.24692,0 m 3.74816,0 6.24692,0 m 3.74816,0 6.24692,0 m 3.74816,0 6.24692,0 m 3.74816,0 6.24692,0 m 3.74816,0 6.24692,0 m 3.74815,0 6.24693,0 m 3.74815,0 6.24693,0 m 3.74815,0 6.24693,0 m 3.74815,0 6.24693,0 m 3.74815,0 6.24693,0 m 3.74815,0 3.74815,0"
     style="fill:none;stroke:#c0c0c0;stroke-width:1.24938488px;stroke-linecap:round;stroke-linejoin:round;stroke-opacity:1;stroke-dasharray:none" />
  <path
     inkscape:connector-curvature="0"
     id="path3017"
     d="m 83.008708,394.27996 6.246924,0 m 3.748155,0 6.246925,0 m 3.748158,0 6.24692,0 m 3.74816,0 6.24692,0 m 3.74816,0 6.24692,0 m 3.74816,0 6.24692,0 m 3.74816,0 6.24692,0 m 3.74816,0 6.24692,0 m 3.74815,0 6.24693,0 m 3.74815,0 6.24693,0 m 3.74815,0 6.24693,0 m 3.74815,0 6.24693,0 m 3.74815,0 6.24692,0 m 3.74816,0 6.24692,0 m 3.74816,0 6.24692,0 m 3.74816,0 6.24692,0 m 3.74816,0 6.24692,0 m 3.74816,0 6.24692,0 m 3.74815,0 6.24693,0 m 3.74815,0 6.24693,0 m 3.74815,0 6.24693,0 m 3.74815,0 6.24693,0 m 3.74815,0 6.24693,0 m 3.74815,0 6.24692,0 m 3.74816,0 6.24692,0 m 3.74816,0 6.24692,0 m 3.74816,0 6.24692,0 m 3.74816,0 6.24692,0 m 3.74816,0 6.24692,0 m 3.74815,0 6.24693,0 m 3.74815,0 6.24693,0 m 3.74815,0 6.24693,0 m 3.74815,0 6.24693,0 m 3.74815,0 6.24692,0 m 3.74816,0 6.24692,0 m 3.74816,0 6.24692,0 m 3.74816,0 6.24692,0 m 3.74816,0 6.24692,0 m 3.74816,0 6.24692,0 m 3.74815,0 6.24693,0 m 3.74815,0 6.24693,0 m 3.74815,0 6.24693,0 m 3.74815,0 6.24693,0 m 3.74815,0 6.24693,0 m 3.74815,0 3.74815,0"
     style="fill:none;stroke:#c0c0c0;stroke-width:1.24938488px;stroke-linecap:round;stroke-linejoin:round;stroke-opacity:1;stroke-dasharray:none" />
  <path
     inkscape:connector-curvature="0"
     id="path3019"
     d="m 83.008708,70.545866 6.246924,0 m 3.748155,0 6.246925,0 m 3.748158,0 6.24692,0 m 3.74816,0 6.24692,0 m 3.74816,0 6.24692,0 m 3.74816,0 6.24692,0 m 3.74816,0 6.24692,0 m 3.74816,0 6.24692,0 m 3.74815,0 6.24693,0 m 3.74815,0 6.24693,0 m 3.74815,0 6.24693,0 m 3.74815,0 6.24693,0 m 3.74815,0 6.24692,0 m 3.74816,0 6.24692,0 m 3.74816,0 6.24692,0 m 3.74816,0 6.24692,0 m 3.74816,0 6.24692,0 m 3.74816,0 6.24692,0 m 3.74815,0 6.24693,0 m 3.74815,0 6.24693,0 m 3.74815,0 6.24693,0 m 3.74815,0 6.24693,0 m 3.74815,0 6.24693,0 m 3.74815,0 6.24692,0 m 3.74816,0 6.24692,0 m 3.74816,0 6.24692,0 m 3.74816,0 6.24692,0 m 3.74816,0 6.24692,0 m 3.74816,0 6.24692,0 m 3.74815,0 6.24693,0 m 3.74815,0 6.24693,0 m 3.74815,0 6.24693,0 m 3.74815,0 6.24693,0 m 3.74815,0 6.24692,0 m 3.74816,0 6.24692,0 m 3.74816,0 6.24692,0 m 3.74816,0 6.24692,0 m 3.74816,0 6.24692,0 m 3.74816,0 6.24692,0 m 3.74815,0 6.24693,0 m 3.74815,0 6.24693,0 m 3.74815,0 6.24693,0 m 3.74815,0 6.24693,0 m 3.74815,0 6.24693,0 m 3.74815,0 3.74815,0"
     style="fill:none;stroke:#c0c0c0;stroke-width:1.24938488px;stroke-linecap:round;stroke-linejoin:round;stroke-opacity:1;stroke-dasharray:none" />
  <path
     inkscape:connector-curvature="0"
     id="path3021"
     d="m 83.008708,129.29298 6.246924,0 m 3.748155,0 6.246925,0 m 3.748158,0 6.24692,0 m 3.74816,0 6.24692,0 m 3.74816,0 6.24692,0 m 3.74816,0 6.24692,0 m 3.74816,0 6.24692,0 m 3.74816,0 6.24692,0 m 3.74815,0 6.24693,0 m 3.74815,0 6.24693,0 m 3.74815,0 6.24693,0 m 3.74815,0 6.24693,0 m 3.74815,0 6.24692,0 m 3.74816,0 6.24692,0 m 3.74816,0 6.24692,0 m 3.74816,0 6.24692,0 m 3.74816,0 6.24692,0 m 3.74816,0 6.24692,0 m 3.74815,0 6.24693,0 m 3.74815,0 6.24693,0 m 3.74815,0 6.24693,0 m 3.74815,0 6.24693,0 m 3.74815,0 6.24693,0 m 3.74815,0 6.24692,0 m 3.74816,0 6.24692,0 m 3.74816,0 6.24692,0 m 3.74816,0 6.24692,0 m 3.74816,0 6.24692,0 m 3.74816,0 6.24692,0 m 3.74815,0 6.24693,0 m 3.74815,0 6.24693,0 m 3.74815,0 6.24693,0 m 3.74815,0 6.24693,0 m 3.74815,0 6.24692,0 m 3.74816,0 6.24692,0 m 3.74816,0 6.24692,0 m 3.74816,0 6.24692,0 m 3.74816,0 6.24692,0 m 3.74816,0 6.24692,0 m 3.74815,0 6.24693,0 m 3.74815,0 6.24693,0 m 3.74815,0 6.24693,0 m 3.74815,0 6.24693,0 m 3.74815,0 6.24693,0 m 3.74815,0 3.74815,0"
     style="fill:none;stroke:#c0c0c0;stroke-width:1.24938488px;stroke-linecap:round;stroke-linejoin:round;stroke-opacity:1;stroke-dasharray:none" />
  <path
     inkscape:connector-curvature="0"
     id="path3023"
     d="m 83.008708,188.0401 6.246924,0 m 3.748155,0 6.246925,0 m 3.748158,0 6.24692,0 m 3.74816,0 6.24692,0 m 3.74816,0 6.24692,0 m 3.74816,0 6.24692,0 m 3.74816,0 6.24692,0 m 3.74816,0 6.24692,0 m 3.74815,0 6.24693,0 m 3.74815,0 6.24693,0 m 3.74815,0 6.24693,0 m 3.74815,0 6.24693,0 m 3.74815,0 6.24692,0 m 3.74816,0 6.24692,0 m 3.74816,0 6.24692,0 m 3.74816,0 6.24692,0 m 3.74816,0 6.24692,0 m 3.74816,0 6.24692,0 m 3.74815,0 6.24693,0 m 3.74815,0 6.24693,0 m 3.74815,0 6.24693,0 m 3.74815,0 6.24693,0 m 3.74815,0 6.24693,0 m 3.74815,0 6.24692,0 m 3.74816,0 6.24692,0 m 3.74816,0 6.24692,0 m 3.74816,0 6.24692,0 m 3.74816,0 6.24692,0 m 3.74816,0 6.24692,0 m 3.74815,0 6.24693,0 m 3.74815,0 6.24693,0 m 3.74815,0 6.24693,0 m 3.74815,0 6.24693,0 m 3.74815,0 6.24692,0 m 3.74816,0 6.24692,0 m 3.74816,0 6.24692,0 m 3.74816,0 6.24692,0 m 3.74816,0 6.24692,0 m 3.74816,0 6.24692,0 m 3.74815,0 6.24693,0 m 3.74815,0 6.24693,0 m 3.74815,0 6.24693,0 m 3.74815,0 6.24693,0 m 3.74815,0 6.24693,0 m 3.74815,0 3.74815,0"
     style="fill:none;stroke:#c0c0c0;stroke-width:1.24938488px;stroke-linecap:round;stroke-linejoin:round;stroke-opacity:1;stroke-dasharray:none" />
  <path
     inkscape:connector-curvature="0"
     id="path3025"
     d="m 83.008708,248.03715 6.246924,0 m 3.748155,0 6.246925,0 m 3.748158,0 6.24692,0 m 3.74816,0 6.24692,0 m 3.74816,0 6.24692,0 m 3.74816,0 6.24692,0 m 3.74816,0 6.24692,0 m 3.74816,0 6.24692,0 m 3.74815,0 6.24693,0 m 3.74815,0 6.24693,0 m 3.74815,0 6.24693,0 m 3.74815,0 6.24693,0 m 3.74815,0 6.24692,0 m 3.74816,0 6.24692,0 m 3.74816,0 6.24692,0 m 3.74816,0 6.24692,0 m 3.74816,0 6.24692,0 m 3.74816,0 6.24692,0 m 3.74815,0 6.24693,0 m 3.74815,0 6.24693,0 m 3.74815,0 6.24693,0 m 3.74815,0 6.24693,0 m 3.74815,0 6.24693,0 m 3.74815,0 6.24692,0 m 3.74816,0 6.24692,0 m 3.74816,0 6.24692,0 m 3.74816,0 6.24692,0 m 3.74816,0 6.24692,0 m 3.74816,0 6.24692,0 m 3.74815,0 6.24693,0 m 3.74815,0 6.24693,0 m 3.74815,0 6.24693,0 m 3.74815,0 6.24693,0 m 3.74815,0 6.24692,0 m 3.74816,0 6.24692,0 m 3.74816,0 6.24692,0 m 3.74816,0 6.24692,0 m 3.74816,0 6.24692,0 m 3.74816,0 6.24692,0 m 3.74815,0 6.24693,0 m 3.74815,0 6.24693,0 m 3.74815,0 6.24693,0 m 3.74815,0 6.24693,0 m 3.74815,0 6.24693,0 m 3.74815,0 3.74815,0"
     style="fill:none;stroke:#c0c0c0;stroke-width:1.24938488px;stroke-linecap:round;stroke-linejoin:round;stroke-opacity:1;stroke-dasharray:none" />
  <path
     inkscape:connector-curvature="0"
     id="path3027"
     d="m 83.008708,306.78426 6.246924,0 m 3.748155,0 6.246925,0 m 3.748158,0 6.24692,0 m 3.74816,0 6.24692,0 m 3.74816,0 6.24692,0 m 3.74816,0 6.24692,0 m 3.74816,0 6.24692,0 m 3.74816,0 6.24692,0 m 3.74815,0 6.24693,0 m 3.74815,0 6.24693,0 m 3.74815,0 6.24693,0 m 3.74815,0 6.24693,0 m 3.74815,0 6.24692,0 m 3.74816,0 6.24692,0 m 3.74816,0 6.24692,0 m 3.74816,0 6.24692,0 m 3.74816,0 6.24692,0 m 3.74816,0 6.24692,0 m 3.74815,0 6.24693,0 m 3.74815,0 6.24693,0 m 3.74815,0 6.24693,0 m 3.74815,0 6.24693,0 m 3.74815,0 6.24693,0 m 3.74815,0 6.24692,0 m 3.74816,0 6.24692,0 m 3.74816,0 6.24692,0 m 3.74816,0 6.24692,0 m 3.74816,0 6.24692,0 m 3.74816,0 6.24692,0 m 3.74815,0 6.24693,0 m 3.74815,0 6.24693,0 m 3.74815,0 6.24693,0 m 3.74815,0 6.24693,0 m 3.74815,0 6.24692,0 m 3.74816,0 6.24692,0 m 3.74816,0 6.24692,0 m 3.74816,0 6.24692,0 m 3.74816,0 6.24692,0 m 3.74816,0 6.24692,0 m 3.74815,0 6.24693,0 m 3.74815,0 6.24693,0 m 3.74815,0 6.24693,0 m 3.74815,0 6.24693,0 m 3.74815,0 6.24693,0 m 3.74815,0 3.74815,0"
     style="fill:none;stroke:#c0c0c0;stroke-width:1.24938488px;stroke-linecap:round;stroke-linejoin:round;stroke-opacity:1;stroke-dasharray:none" />
  <path
     inkscape:connector-curvature="0"
     id="path3029"
     d="m 83.008708,365.53137 6.246924,0 m 3.748155,0 6.246925,0 m 3.748158,0 6.24692,0 m 3.74816,0 6.24692,0 m 3.74816,0 6.24692,0 m 3.74816,0 6.24692,0 m 3.74816,0 6.24692,0 m 3.74816,0 6.24692,0 m 3.74815,0 6.24693,0 m 3.74815,0 6.24693,0 m 3.74815,0 6.24693,0 m 3.74815,0 6.24693,0 m 3.74815,0 6.24692,0 m 3.74816,0 6.24692,0 m 3.74816,0 6.24692,0 m 3.74816,0 6.24692,0 m 3.74816,0 6.24692,0 m 3.74816,0 6.24692,0 m 3.74815,0 6.24693,0 m 3.74815,0 6.24693,0 m 3.74815,0 6.24693,0 m 3.74815,0 6.24693,0 m 3.74815,0 6.24693,0 m 3.74815,0 6.24692,0 m 3.74816,0 6.24692,0 m 3.74816,0 6.24692,0 m 3.74816,0 6.24692,0 m 3.74816,0 6.24692,0 m 3.74816,0 6.24692,0 m 3.74815,0 6.24693,0 m 3.74815,0 6.24693,0 m 3.74815,0 6.24693,0 m 3.74815,0 6.24693,0 m 3.74815,0 6.24692,0 m 3.74816,0 6.24692,0 m 3.74816,0 6.24692,0 m 3.74816,0 6.24692,0 m 3.74816,0 6.24692,0 m 3.74816,0 6.24692,0 m 3.74815,0 6.24693,0 m 3.74815,0 6.24693,0 m 3.74815,0 6.24693,0 m 3.74815,0 6.24693,0 m 3.74815,0 6.24693,0 m 3.74815,0 3.74815,0"
     style="fill:none;stroke:#c0c0c0;stroke-width:1.24938488px;stroke-linecap:round;stroke-linejoin:round;stroke-opacity:1;stroke-dasharray:none" />
  <path
     inkscape:connector-curvature="0"
     id="path3031"
     d="m 516.54527,413.02904 0,6.24969"
     style="fill:none;stroke:#000000;stroke-width:1.24938488px;stroke-linecap:round;stroke-linejoin:round;stroke-opacity:1;stroke-dasharray:none" />
  <path
     inkscape:connector-curvature="0"
     id="path3033"
     d="m 375.36477,413.02904 0,6.24969"
     style="fill:none;stroke:#000000;stroke-width:1.24938488px;stroke-linecap:round;stroke-linejoin:round;stroke-opacity:1;stroke-dasharray:none" />
  <path
     inkscape:connector-curvature="0"
     id="path3035"
     d="m 234.18428,413.02904 0,6.24969"
     style="fill:none;stroke:#000000;stroke-width:1.24938488px;stroke-linecap:round;stroke-linejoin:round;stroke-opacity:1;stroke-dasharray:none" />
  <path
     inkscape:connector-curvature="0"
     id="path3037"
     d="m 93.003787,413.02904 0,6.24969"
     style="fill:none;stroke:#000000;stroke-width:1.24938488px;stroke-linecap:round;stroke-linejoin:round;stroke-opacity:1;stroke-dasharray:none" />
  <path
     inkscape:connector-curvature="0"
     id="path3039"
     d="m 83.008708,35.547586 443.531632,0 M 83.008708,413.02904 l 443.531632,0"
     style="fill:none;stroke:#000000;stroke-width:1.24938488px;stroke-linecap:round;stroke-linejoin:round;stroke-opacity:1;stroke-dasharray:none" />
  <text
     id="text3041"
     style="font-size:16.24200439px;font-style:normal;font-weight:normal;text-align:start;text-anchor:start;fill:#000000;font-family:Tahoma"
     y="439.27777"
     x="511.54773"
     xml:space="preserve">4</text>
  <text
     id="text3043"
     style="font-size:16.24200439px;font-style:normal;font-weight:normal;text-align:start;text-anchor:start;fill:#000000;font-family:Tahoma"
     y="439.27777"
     x="370.36725"
     xml:space="preserve">3</text>
  <text
     id="text3045"
     style="font-size:16.24200439px;font-style:normal;font-weight:normal;text-align:start;text-anchor:start;fill:#000000;font-family:Tahoma"
     y="439.27777"
     x="229.18674"
     xml:space="preserve">2</text>
  <text
     id="text3047"
     style="font-size:16.24200439px;font-style:normal;font-weight:normal;text-align:start;text-anchor:start;fill:#000000;font-family:Tahoma"
     y="439.27777"
     x="88.006248"
     xml:space="preserve">1</text>
  <path
     inkscape:connector-curvature="0"
     id="path3049"
     d="m 83.008708,41.797279 -6.246924,0"
     style="fill:none;stroke:#000000;stroke-width:1.24938488px;stroke-linecap:round;stroke-linejoin:round;stroke-opacity:1;stroke-dasharray:none" />
  <path
     inkscape:connector-curvature="0"
     id="path3051"
     d="m 83.008708,100.54439 -6.246924,0"
     style="fill:none;stroke:#000000;stroke-width:1.24938488px;stroke-linecap:round;stroke-linejoin:round;stroke-opacity:1;stroke-dasharray:none" />
  <path
     inkscape:connector-curvature="0"
     id="path3053"
     d="m 83.008708,159.29151 -6.246924,0"
     style="fill:none;stroke:#000000;stroke-width:1.24938488px;stroke-linecap:round;stroke-linejoin:round;stroke-opacity:1;stroke-dasharray:none" />
  <path
     inkscape:connector-curvature="0"
     id="path3055"
     d="m 83.008708,218.03862 -6.246924,0"
     style="fill:none;stroke:#000000;stroke-width:1.24938488px;stroke-linecap:round;stroke-linejoin:round;stroke-opacity:1;stroke-dasharray:none" />
  <path
     inkscape:connector-curvature="0"
     id="path3057"
     d="m 83.008708,276.78573 -6.246924,0"
     style="fill:none;stroke:#000000;stroke-width:1.24938488px;stroke-linecap:round;stroke-linejoin:round;stroke-opacity:1;stroke-dasharray:none" />
  <path
     inkscape:connector-curvature="0"
     id="path3059"
     d="m 83.008708,335.53285 -6.246924,0"
     style="fill:none;stroke:#000000;stroke-width:1.24938488px;stroke-linecap:round;stroke-linejoin:round;stroke-opacity:1;stroke-dasharray:none" />
  <path
     inkscape:connector-curvature="0"
     id="path3061"
     d="m 83.008708,394.27996 -6.246924,0"
     style="fill:none;stroke:#000000;stroke-width:1.24938488px;stroke-linecap:round;stroke-linejoin:round;stroke-opacity:1;stroke-dasharray:none" />
  <path
     inkscape:connector-curvature="0"
     id="path3063"
     d="m 526.54034,413.02904 0,-377.481454 M 83.008708,413.02904 l 0,-377.481454"
     style="fill:none;stroke:#000000;stroke-width:1.24938488px;stroke-linecap:round;stroke-linejoin:round;stroke-opacity:1;stroke-dasharray:none" />
  <text
     id="text3065"
     style="font-size:16.24200439px;font-style:normal;font-weight:normal;text-align:start;text-anchor:start;fill:#000000;font-family:Tahoma"
     y="50.546848"
     x="50.5247"
     xml:space="preserve">4.0</text>
  <text
     id="text3067"
     style="font-size:16.24200439px;font-style:normal;font-weight:normal;text-align:start;text-anchor:start;fill:#000000;font-family:Tahoma"
     y="109.29397"
     x="50.5247"
     xml:space="preserve">3.5</text>
  <text
     id="text3069"
     style="font-size:16.24200439px;font-style:normal;font-weight:normal;text-align:start;text-anchor:start;fill:#000000;font-family:Tahoma"
     y="168.04108"
     x="50.5247"
     xml:space="preserve">3.0</text>
  <text
     id="text3071"
     style="font-size:16.24200439px;font-style:normal;font-weight:normal;text-align:start;text-anchor:start;fill:#000000;font-family:Tahoma"
     y="226.78818"
     x="50.5247"
     xml:space="preserve">2.5</text>
  <text
     id="text3073"
     style="font-size:16.24200439px;font-style:normal;font-weight:normal;text-align:start;text-anchor:start;fill:#000000;font-family:Tahoma"
     y="285.53531"
     x="50.5247"
     xml:space="preserve">2.0</text>
  <text
     id="text3075"
     style="font-size:16.24200439px;font-style:normal;font-weight:normal;text-align:start;text-anchor:start;fill:#000000;font-family:Tahoma"
     y="344.28244"
     x="50.5247"
     xml:space="preserve">1.5</text>
  <text
     id="text3077"
     style="font-size:16.24200439px;font-style:normal;font-weight:normal;text-align:start;text-anchor:start;fill:#000000;font-family:Tahoma"
     y="403.02954"
     x="50.5247"
     xml:space="preserve">1.0</text>
  <path
     inkscape:connector-curvature="0"
     id="path3079"
     d="M 93.003787,394.27996 234.18428,295.53481 375.36477,206.78917 516.54527,135.54268"
     style="fill:none;stroke:#000000;stroke-width:1.24938488px;stroke-linecap:round;stroke-linejoin:round;stroke-opacity:1;stroke-dasharray:none" />
  <path
     inkscape:connector-curvature="0"
     id="path3081"
     d="m 93.003787,394.27996 9.995083,-8.74957 m 6.24692,-3.74982 9.99508,-8.74957 m 4.99754,-4.99975 9.99508,-7.49963 m 6.24693,-4.99976 8.74569,-7.49963 m 6.24693,-4.99975 9.99507,-7.49963 m 4.99754,-4.99976 9.99508,-7.49963 m 6.24693,-4.99975 8.74569,-8.74957 m 6.24693,-3.74982 9.99507,-8.74957 m 4.99754,-4.99975 9.99508,-7.49964 m 6.24693,-4.99975 1.24938,-1.24994 m 0,0 7.49631,-6.24969 m 6.24693,-4.99976 9.99508,-7.49963 m 4.99753,-4.99975 9.99508,-7.49963 m 6.24693,-4.99976 8.74569,-8.74957 m 6.24693,-4.99975 9.99508,-7.49963 m 4.99754,-4.99976 9.99507,-7.49963 m 6.24693,-4.99975 8.74569,-7.49963 m 6.24693,-4.99976 9.99508,-8.74957 m 4.99754,-3.74981 9.99507,-8.74957 m 4.99754,-4.99976 4.99754,-2.49987 m 0,0 6.24693,-3.74982 m 6.24692,-3.74982 9.99508,-6.24969 m 7.49631,-4.99975 9.99508,-6.2497 m 6.24692,-3.74981 11.24447,-6.24969 m 6.24692,-3.74982 11.24447,-6.24969 m 6.24692,-3.74982 9.99508,-6.24969 m 7.49631,-3.74982 9.99508,-6.249694 m 6.24692,-3.749816 11.24447,-7.499631 m 6.24692,-3.749816 8.7457,-4.999754"
     style="fill:none;stroke:#ff0000;stroke-width:1.24938488px;stroke-linecap:round;stroke-linejoin:round;stroke-opacity:1;stroke-dasharray:none" />
  <path
     inkscape:connector-curvature="0"
     id="path3083"
     d="m 516.54527,138.04255 -2.49877,-2.49987 2.49877,-2.49988 2.49877,2.49988 z"
     style="fill:#000000;fill-opacity:1;fill-rule:nonzero;stroke:#000000;stroke-width:1.24938488px;stroke-linecap:round;stroke-linejoin:round;stroke-opacity:1;stroke-dasharray:none" />
  <ellipse
     sodipodi:ry="2.4998772"
     sodipodi:rx="2.4987698"
     sodipodi:cy="134.99336"
     sodipodi:cx="515.99597"
     d="m 518.49474,134.99336 c 0,1.38065 -1.11874,2.49988 -2.49877,2.49988 -1.38003,0 -2.49877,-1.11923 -2.49877,-2.49988 0,-1.38064 1.11874,-2.49987 2.49877,-2.49987 1.38003,0 2.49877,1.11923 2.49877,2.49987 z"
     id="ellipse3085"
     ry="2.4998772"
     rx="2.4987698"
     cy="134.99336"
     cx="515.99597"
     style="fill:none;stroke:#000000;stroke-width:1.24938488px;stroke-linecap:round;stroke-linejoin:round;stroke-opacity:1;stroke-dasharray:none"
     transform="translate(0.54930559,0.54930559)" />
  <path
     inkscape:connector-curvature="0"
     id="path3087"
     d="m 375.36477,209.28905 -2.49877,-2.49988 2.49877,-2.49987 2.49877,2.49987 z"
     style="fill:#000000;fill-opacity:1;fill-rule:nonzero;stroke:#000000;stroke-width:1.24938488px;stroke-linecap:round;stroke-linejoin:round;stroke-opacity:1;stroke-dasharray:none" />
  <ellipse
     sodipodi:ry="2.4998772"
     sodipodi:rx="2.4987698"
     sodipodi:cy="206.23985"
     sodipodi:cx="374.81546"
     d="m 377.31423,206.23985 c 0,1.38065 -1.11874,2.49988 -2.49877,2.49988 -1.38003,0 -2.49877,-1.11923 -2.49877,-2.49988 0,-1.38064 1.11874,-2.49987 2.49877,-2.49987 1.38003,0 2.49877,1.11923 2.49877,2.49987 z"
     id="ellipse3089"
     ry="2.4998772"
     rx="2.4987698"
     cy="206.23985"
     cx="374.81546"
     style="fill:none;stroke:#000000;stroke-width:1.24938488px;stroke-linecap:round;stroke-linejoin:round;stroke-opacity:1;stroke-dasharray:none"
     transform="translate(0.54930559,0.54930559)" />
  <path
     inkscape:connector-curvature="0"
     id="path3091"
     d="m 234.18428,298.03469 -2.49877,-2.49988 2.49877,-2.49988 2.49877,2.49988 z"
     style="fill:#000000;fill-opacity:1;fill-rule:nonzero;stroke:#000000;stroke-width:1.24938488px;stroke-linecap:round;stroke-linejoin:round;stroke-opacity:1;stroke-dasharray:none" />
  <ellipse
     sodipodi:ry="2.4998772"
     sodipodi:rx="2.4987698"
     sodipodi:cy="294.9855"
     sodipodi:cx="233.63496"
     d="m 236.13373,294.9855 c 0,1.38065 -1.11873,2.49988 -2.49877,2.49988 -1.38003,0 -2.49877,-1.11923 -2.49877,-2.49988 0,-1.38064 1.11874,-2.49987 2.49877,-2.49987 1.38004,0 2.49877,1.11923 2.49877,2.49987 z"
     id="ellipse3093"
     ry="2.4998772"
     rx="2.4987698"
     cy="294.9855"
     cx="233.63496"
     style="fill:none;stroke:#000000;stroke-width:1.24938488px;stroke-linecap:round;stroke-linejoin:round;stroke-opacity:1;stroke-dasharray:none"
     transform="translate(0.54930559,0.54930559)" />
  <path
     inkscape:connector-curvature="0"
     id="path3095"
     d="m 93.003787,396.77984 -2.49877,-2.49988 2.49877,-2.49988 2.49877,2.49988 z"
     style="fill:#000000;fill-opacity:1;fill-rule:nonzero;stroke:#000000;stroke-width:1.24938488px;stroke-linecap:round;stroke-linejoin:round;stroke-opacity:1;stroke-dasharray:none" />
  <ellipse
     sodipodi:ry="2.4998772"
     sodipodi:rx="2.4987698"
     sodipodi:cy="393.73065"
     sodipodi:cx="92.454483"
     d="m 94.953253,393.73065 c 0,1.38065 -1.118738,2.49988 -2.49877,2.49988 -1.380032,0 -2.49877,-1.11923 -2.49877,-2.49988 0,-1.38064 1.118738,-2.49988 2.49877,-2.49988 1.380032,0 2.49877,1.11924 2.49877,2.49988 z"
     id="ellipse3097"
     ry="2.4998772"
     rx="2.4987698"
     cy="393.73065"
     cx="92.454483"
     style="fill:none;stroke:#000000;stroke-width:1.24938488px;stroke-linecap:round;stroke-linejoin:round;stroke-opacity:1;stroke-dasharray:none"
     transform="translate(0.54930559,0.54930559)" />
  <path
     inkscape:connector-curvature="0"
     id="path3099"
     d="m 514.0465,79.295436 4.99754,0 0,-4.999755 -4.99754,0 z"
     style="fill:#ff0000;fill-opacity:1;fill-rule:nonzero;stroke:#ff0000;stroke-width:1.24938488px;stroke-linecap:round;stroke-linejoin:round;stroke-opacity:1;stroke-dasharray:none" />
  <path
     inkscape:connector-curvature="0"
     id="path3101"
     d="m 372.866,164.29126 4.99754,0 0,-4.99975 -4.99754,0 z"
     style="fill:#ff0000;fill-opacity:1;fill-rule:nonzero;stroke:#ff0000;stroke-width:1.24938488px;stroke-linecap:round;stroke-linejoin:round;stroke-opacity:1;stroke-dasharray:none" />
  <path
     inkscape:connector-curvature="0"
     id="path3103"
     d="m 231.68551,280.53555 4.99754,0 0,-4.99976 -4.99754,0 z"
     style="fill:#ff0000;fill-opacity:1;fill-rule:nonzero;stroke:#ff0000;stroke-width:1.24938488px;stroke-linecap:round;stroke-linejoin:round;stroke-opacity:1;stroke-dasharray:none" />
  <path
     inkscape:connector-curvature="0"
     id="path3105"
     d="m 90.505017,396.77984 4.99754,0 0,-4.99976 -4.99754,0 z"
     style="fill:#ff0000;fill-opacity:1;fill-rule:nonzero;stroke:#ff0000;stroke-width:1.24938488px;stroke-linecap:round;stroke-linejoin:round;stroke-opacity:1;stroke-dasharray:none" />
  <text
     id="text3107"
     style="font-size:16.24200439px;font-style:normal;font-weight:bold;text-align:start;text-anchor:start;fill:#000000;font-family:Tahoma"
     y="460.5267"
     x="227.93735"
     xml:space="preserve">Number of threads</text>
  <text
     id="text3109"
     style="font-size:16.24200439px;font-style:normal;font-weight:bold;text-align:start;text-anchor:start;fill:#000000;font-family:Tahoma"
     transform="matrix(0,-1,1,0,0,0)"
     y="40.529617"
     x="-260.53653"
     xml:space="preserve">S</text>
  <text
     id="text3111"
     style="font-size:16.24200439px;font-style:normal;font-weight:bold;text-align:start;text-anchor:start;fill:#000000;font-family:Tahoma"
     transform="matrix(0,-1,1,0,0,0)"
     y="40.529633"
     x="-250.53702"
     xml:space="preserve">p</text>
  <text
     id="text3113"
     style="font-size:16.24200439px;font-style:normal;font-weight:bold;text-align:start;text-anchor:start;fill:#000000;font-family:Tahoma"
     transform="matrix(0,-1,1,0,0,0)"
     y="40.529629"
     x="-240.53751"
     xml:space="preserve">e</text>
  <text
     id="text3115"
     style="font-size:16.24200439px;font-style:normal;font-weight:bold;text-align:start;text-anchor:start;fill:#000000;font-family:Tahoma"
     transform="matrix(0,-1,1,0,0,0)"
     y="40.529617"
     x="-230.53801"
     xml:space="preserve">e</text>
  <text
     id="text3117"
     style="font-size:16.24200439px;font-style:normal;font-weight:bold;text-align:start;text-anchor:start;fill:#000000;font-family:Tahoma"
     transform="matrix(0,-1,1,0,0,0)"
     y="40.529633"
     x="-220.5385"
     xml:space="preserve">d</text>
  <text
     id="text3119"
     style="font-size:16.24200439px;font-style:normal;font-weight:bold;text-align:start;text-anchor:start;fill:#000000;font-family:Tahoma"
     transform="matrix(0,-1,1,0,0,0)"
     y="40.529629"
     x="-210.53899"
     xml:space="preserve">u</text>
  <text
     id="text3121"
     style="font-size:16.24200439px;font-style:normal;font-weight:bold;text-align:start;text-anchor:start;fill:#000000;font-family:Tahoma"
     transform="matrix(0,-1,1,0,0,0)"
     y="40.529629"
     x="-200.53947"
     xml:space="preserve">p</text>
  <path
     inkscape:connector-curvature="0"
     id="path3123"
     d="m 350.37708,333.03297 159.92126,0 0,57.49717 -159.92126,0 z"
     style="fill:#ffffff;fill-opacity:1;fill-rule:nonzero;stroke:#ffffff;stroke-width:1.24938488px;stroke-linecap:round;stroke-linejoin:round;stroke-opacity:1;stroke-dasharray:none" />
  <path
     inkscape:connector-curvature="0"
     id="path3125"
     d="m 350.37708,333.03297 159.92126,0 0,57.49717 -159.92126,0 0,-57.49717"
     style="fill:none;stroke:#000000;stroke-width:1.24938488px;stroke-linecap:round;stroke-linejoin:round;stroke-opacity:1;stroke-dasharray:none" />
  <path
     inkscape:connector-curvature="0"
     id="path3127"
     d="m 356.624,363.03149 36.23216,0"
     style="fill:none;stroke:#000000;stroke-width:1.24938488px;stroke-linecap:round;stroke-linejoin:round;stroke-opacity:1;stroke-dasharray:none" />
  <path
     inkscape:connector-curvature="0"
     id="path3129"
     d="m 356.624,380.53063 12.49385,0 m 7.49631,0 12.49385,0"
     style="fill:none;stroke:#ff0000;stroke-width:1.24938488px;stroke-linecap:round;stroke-linejoin:round;stroke-opacity:1;stroke-dasharray:none" />
  <path
     inkscape:connector-curvature="0"
     id="path3131"
     d="m 376.61416,365.53137 -2.49877,1.24994 -2.49877,-1.24994 -1.24939,-2.49988 1.24939,-2.49987 2.49877,-1.24994 2.49877,1.24994 1.24938,2.49987 z"
     style="fill:#000000;fill-opacity:1;fill-rule:nonzero;stroke:#000000;stroke-width:1.24938488px;stroke-linecap:round;stroke-linejoin:round;stroke-opacity:1;stroke-dasharray:none" />
  <ellipse
     sodipodi:ry="3.7498157"
     sodipodi:rx="3.7481546"
     sodipodi:cy="362.48218"
     sodipodi:cx="373.56607"
     d="m 377.31423,362.48218 c 0,2.07096 -1.67811,3.74981 -3.74816,3.74981 -2.07005,0 -3.74815,-1.67885 -3.74815,-3.74981 0,-2.07097 1.6781,-3.74982 3.74815,-3.74982 2.07005,0 3.74816,1.67885 3.74816,3.74982 z"
     id="ellipse3133"
     ry="3.7498157"
     rx="3.7481546"
     cy="362.48218"
     cx="373.56607"
     style="fill:none;stroke:#000000;stroke-width:1.24938488px;stroke-linecap:round;stroke-linejoin:round;stroke-opacity:1;stroke-dasharray:none"
     transform="translate(0.54930559,0.54930559)" />
  <path
     inkscape:connector-curvature="0"
     id="path3135"
     d="m 370.36723,384.28045 7.49631,0 0,-7.49963 -7.49631,0 z"
     style="fill:#ff0000;fill-opacity:1;fill-rule:nonzero;stroke:#ff0000;stroke-width:1.24938488px;stroke-linecap:round;stroke-linejoin:round;stroke-opacity:1;stroke-dasharray:none" />
  <text
     id="text3137"
     style="font-size:12.4938488px;font-style:normal;font-weight:normal;text-align:start;text-anchor:start;fill:#000000;font-family:Tahoma"
     y="370.53113"
     x="400.35248"
     xml:space="preserve">Training (x)</text>
  <text
     id="text3139"
     style="font-size:12.4938488px;font-style:normal;font-weight:normal;text-align:start;text-anchor:start;fill:#000000;font-family:Tahoma"
     y="388.03027"
     x="400.35248"
     xml:space="preserve">Classification (x)</text>
  <text
     id="text3141"
     style="font-size:12.4938488px;font-style:normal;font-weight:normal;text-align:start;text-anchor:start;fill:#000000;font-family:Tahoma"
     y="353.03198"
     x="400.35248"
     xml:space="preserve">Variable</text>
</svg>
